<svg xmlns="http://www.w3.org/2000/svg" width="128" height="128" viewBox="0 0 64 64"><rect width="64" height="64" rx="16" ry="16" fill="#666"/><rect x="4" y="4" width="56" height="56" rx="12" ry="12" fill="#fff"/><path fill="#666" d="M43.383 28.22l2.974-3.354-1-1.732-4.4.9c-.31-.35-.64-.68-.99-.992l.9-4.4-1.733-1-3.353 2.975c-.445-.148-.898-.28-1.365-.374L33 16h-2l-1.414 4.243c-.467.095-.92.226-1.366.374l-3.354-2.973-1.732 1 .9 4.4c-.35.31-.68.64-.992.99l-4.4-.9-1 1.733 2.975 3.353c-.148.446-.28.9-.374 1.366L16 31v2l4.243 1.414c.095.467.226.92.374 1.366l-2.974 3.353 1 1.732 4.4-.9c.31.35.64.68.99.992l-.9 4.4 1.733 1 3.353-2.975c.445.148.898.28 1.365.374L31 48h2l1.414-4.243c.467-.095.92-.226 1.366-.374l3.353 2.974 1.732-1-.9-4.4c.35-.31.68-.64.992-.99l4.4.9 1-1.733-2.975-3.353c.148-.445.28-.898.374-1.365L48 33v-2l-4.243-1.414c-.096-.467-.226-.92-.374-1.367zM40 32c0 4.41-3.59 8-8 8s-8-3.59-8-8 3.59-8 8-8 8 3.59 8 8zm-8-4c2.21 0 4 1.79 4 4s-1.79 4-4 4-4-1.79-4-4 1.79-4 4-4z"/></svg>