<svg xmlns="http://www.w3.org/2000/svg" width="64" height="64" viewBox="0 0 64 64"><rect width="64" height="64" rx="16" ry="16" fill="#f77"/><rect x="6" y="6" width="52" height="52" rx="10" ry="10" fill="#bcf7ff"/><path fill="#e4922c" d="M16 40h14v-4H20v-8h24v2h4V16H16v24zm4-20h24v2H20v-2zm20 12c-4.418 0-8 3.582-8 8s3.582 8 8 8 8-3.582 8-8-3.582-8-8-8m3 7v2h-4.614c.066.357.145.585.145.585.465 1.295 1.276 1.866 2.564 1.866.708 0 1.246-.147 1.65-.312l.388 1.497c-.298.15-1.02.365-2.132.365-2.264 0-4.096-1.082-4.716-3.378 0 0-.07-.256-.136-.622H35v-2h1.136c.067-.404.148-.694.148-.694C36.904 36.01 38.736 35 41 35c1.113 0 1.834.212 2.132.36l-.387 1.498c-.405-.162-.943-.313-1.65-.313-1.288 0-2.1.664-2.564 1.962 0 0-.06.192-.12.493H43z"/></svg>