<svg xmlns="http://www.w3.org/2000/svg" width="64" height="64" viewBox="0 0 64 64"><path fill="#666" d="M30 12v-2c0-2.236-.76-4.28-2-5.945V4l-.057-.014C26.117 1.58 22.253 0 19 0 12.306 0 5.526 3.082 3.84 14.417 1.595 15.287 0 17.45 0 20c0 3.314 2.686 6 6 6 .726 0 1.413-.15 2.058-.385.295 3.573 3.07 6.385 6.488 6.385h10.91C29.068 32 32 28.866 32 25c0-1.974-.77-3.75-2-5.023V12zM6 24c-2.206 0-4-1.794-4-4s1.794-4 4-4 4 1.794 4 4-1.794 4-4 4zm4-14v5.557c-.916-.825-2.082-1.36-3.376-1.494.77-1.846 1.922-3.193 3.384-4.145 0 .028-.008.054-.008.082zm10 16c-2 0-3-2-3-2h6s-1 2-3 2zm6-7.97c-.18-.017-.36-.03-.545-.03C23.175 18 21 19 20 20.333 19 19 16.825 18 14.546 18c-.192 0-.368.018-.546.037V12h12v6.03zM14 10c0-.702.127-1.373.35-2h11.3c.223.627.35 1.298.35 2H14zm4 6h-2v-2h2v2zm6 0h-2v-2h2v2z"/><path fill="#666" d="M14.04 18h-2v-2h2v2zm6-2h-2v2h2v-2zM12 22c.804 1.19 2.286 2 4 2s3.196-.81 4-2h-8zm15.49 1.52C25.982 28.43 21.41 32 16 32s-9.983-3.57-11.49-8.48C-3.233 19.133 1.344 8 1.344 8l5.212 5.205L16 0l9.445 13.205L30.657 8s4.577 11.134-3.168 15.52zM5.243 14.723L2.306 11.79c-.548 2.65-.73 6.438 1.713 8.896-.014-.23-.036-.455-.036-.686 0-1.9.47-3.68 1.26-5.276zM24.01 20c0-2.4-1.085-4.532-2.767-6H10.758c-1.682 1.468-2.768 3.6-2.768 6 0 4.41 3.594 8 8.01 8 4.417 0 8.01-3.59 8.01-8zm5.684-8.21l-2.938 2.933c.79 1.596 1.26 3.376 1.26 5.276 0 .23-.022.456-.035.684 2.444-2.456 2.262-6.244 1.714-8.895z"/><path fill="#666" d="M2.124 25.63l4.247 4.246c-1.563 1.564-3.78 1.88-4.954.708-1.173-1.173-.856-3.39.708-4.955zM32 2.83L29.168 0l-12.18 12.18 2.833 2.83L32 2.833zm-19.17 26.16c.88-1.76 2.036-3.364 3.427-4.754l.733-.733c2.346-2.346 2.346-6.15 0-8.495-2.346-2.346-6.15-2.346-8.495 0l-.733.733c-1.39 1.39-2.996 2.547-4.754 3.427L0 20.674 11.326 32l1.504-3.008z"/><path fill="#666" d="M14 29c0 1.657-1.343 3-3 3s-3-1.343-3-3 1.343-3 3-3 3 1.343 3 3zm9-3c-1.657 0-3 1.343-3 3s1.343 3 3 3 3-1.343 3-3-1.343-3-3-3zm2.067-26C21.202-.037 18.037 3.067 18 6.933c-.037 3.866 3.066 7.03 6.932 7.067 3.866.037 7.03-3.066 7.067-6.932.037-3.866-3.067-7.03-6.933-7.068zM20 6.952c.027-2.757 2.29-4.978 5.048-4.952 1.017.01 1.96.328 2.745.86l-6.986 6.853c-.517-.796-.817-1.744-.807-2.76zM24.952 12c-1.017-.01-1.96-.328-2.745-.86l6.986-6.853c.517.796.817 1.744.807 2.76-.027 2.758-2.29 4.98-5.048 4.953zM29 16l-3 8H8L3.02 4H0V2h4.582l1.5 6H16v4H9.123l2 8h12.105l1.5-4H29z"/><path fill="#666" d="M18.578 27.487c.26.446.422.96.422 1.513 0 1.657-1.342 3-3 3s-3-1.343-3-3c0-.554.16-1.067.422-1.513C13.942 26.6 14.895 26 16 26s2.057.6 2.578 1.487zM8.21 20.837l2.086 3.525c1.46-1.458 3.476-2.364 5.704-2.364s4.245.905 5.704 2.364l2.086-3.524c-2.104-1.768-4.82-2.84-7.79-2.84s-5.686 1.072-7.79 2.84zm11.857-6.314s-2.873-2.643-3.536-4.502c-4.45-.115-8.83 1.246-12.43 3.876l2.056 3.47c3.92-3.024 9.114-4.1 13.91-2.843zM17.483 2.057C11.286 1.735 5.12 3.447 0 6.967l2.057 3.473c4.08-2.882 9.006-4.454 14.002-4.438-.002 0-.06-2.002 1.423-3.945zM32 7c0 3.866-3.134 7-7 7s-7-3.134-7-7 3.134-7 7-7 7 3.134 7 7zm-6 3h-2v2h2v-2zm0-8h-2v6h2V2z"/><path fill="#666" d="M25 0c-3.866 0-7 3.134-7 7s3.134 7 7 7 7-3.134 7-7-3.134-7-7-7zm-5 7c0-2.757 2.243-5 5-5 1.017 0 1.962.31 2.753.833l-6.92 6.92C20.31 8.963 20 8.017 20 7zm5 5c-1.017 0-1.962-.31-2.753-.833l6.92-6.92C29.69 5.037 30 5.983 30 7c0 2.757-2.243 5-5 5zm-4.933 2.523c-4.797-1.256-9.99-.18-13.91 2.844L4.1 13.897c3.6-2.632 7.98-3.992 12.43-3.876.664 1.86 3.537 4.503 3.537 4.503zm-4.01-8.52c-4.995-.016-9.92 1.556-14 4.437L0 6.966c5.12-3.52 11.286-5.232 17.483-4.91C16 4 16.058 6.003 16.058 6.003zm2.52 21.484c.262.446.423.96.423 1.513 0 1.657-1.342 3-3 3s-3-1.343-3-3c0-.554.16-1.067.422-1.513C13.942 26.6 14.895 26 16 26s2.057.6 2.578 1.487zM16 18c2.97 0 5.686 1.07 7.79 2.838l-2.086 3.524c-1.46-1.458-3.476-2.364-5.704-2.364s-4.245.905-5.704 2.364L8.21 20.838c2.104-1.768 4.82-2.84 7.79-2.84z"/></svg>