<?xml version="1.0" encoding="UTF-8" standalone="no"?>
<svg xmlns="http://www.w3.org/2000/svg" xmlns:xlink="http://www.w3.org/1999/xlink">
    
<symbol id="i-emoticon-bangs-tongue-out-02" viewBox="0 0 32 32">
    <path  d="M16,0C7.163,0,0,7.164,0,16c0,8.836,7.163,16,16,16s16-7.164,16-16C32,7.164,24.837,0,16,0z M16,31 C7.729,31,1,24.271,1,16C1,9.344,5.361,3.693,11.374,1.738c1.477,2.784,7.45,12.821,19.126,18.036C28.82,26.221,22.965,31,16,31z  M12.96,14.78C12.293,13.716,11.122,13,9.776,13s-2.517,0.716-3.184,1.78C6.507,14.917,6.357,15,6.196,15h-0.09 c-0.169,0-0.325-0.092-0.408-0.239s-0.079-0.328,0.009-0.473C6.545,12.917,8.051,12,9.776,12c1.703,0,3.192,0.893,4.036,2.235 c0.097,0.154,0.103,0.348,0.015,0.507S13.572,15,13.391,15h-0.034C13.196,15,13.046,14.917,12.96,14.78z M22,19.5 c0,0.276-0.224,0.5-0.5,0.5h-2.294c0.856,2.618,1.476,6-0.646,6c-2.395,0-3.852-3.384-4.756-6H10.5c-0.276,0-0.5-0.224-0.5-0.5 c0-0.276,0.224-0.5,0.5-0.5h11C21.776,19,22,19.224,22,19.5z"></path>
</symbol>
<symbol id="i-emoticon-bangs-tongue-out" viewBox="0 0 32 32">
    <path  d="M8,14c0-1.105,0.895-2,2-2s2,0.895,2,2c0,1.105-0.895,2-2,2S8,15.105,8,14z M32,16c0,8.836-7.163,16-16,16 S0,24.836,0,16C0,7.164,7.163,0,16,0S32,7.164,32,16z M30.5,19.774C18.824,14.559,12.851,4.522,11.374,1.738 C5.361,3.693,1,9.344,1,16c0,8.271,6.729,15,15,15C22.965,31,28.82,26.221,30.5,19.774z M21.5,21h-11c-0.276,0-0.5,0.224-0.5,0.5 c0,0.276,0.224,0.5,0.5,0.5H13c0,3.314,1.343,6,3,6s3-2.686,3-6h2.5c0.276,0,0.5-0.224,0.5-0.5C22,21.224,21.776,21,21.5,21z"></path>
</symbol>
<symbol id="i-confused-02" viewBox="0 0 32 32">
    <path  d="M16,0C7.163,0,0,7.163,0,16s7.163,16,16,16s16-7.163,16-16S24.837,0,16,0z M16,31C7.729,31,1,24.271,1,16 C1,7.729,7.729,1,16,1c8.271,0,15,6.729,15,15C31,24.271,24.271,31,16,31z M17.985,9.71C17.833,6.532,15.216,4,12,4 c-3.314,0-6,2.686-6,6s2.686,6,6,6c2.098,0,3.942-1.079,5.015-2.71C17.167,16.468,19.784,19,23,19c3.314,0,6-2.686,6-6s-2.686-6-6-6 C20.902,7,19.058,8.079,17.985,9.71z M12,15c-2.757,0-5-2.243-5-5s2.243-5,5-5s5,2.243,5,5S14.757,15,12,15z M28,13 c0,2.757-2.243,5-5,5s-5-2.243-5-5s2.243-5,5-5S28,10.243,28,13z M23,11c1.105,0,2,0.895,2,2c0,1.105-0.895,2-2,2s-2-0.895-2-2 C21,11.895,21.895,11,23,11z M14,10c0,1.105-0.895,2-2,2s-2-0.895-2-2c0-1.105,0.895-2,2-2S14,8.895,14,10z M19.76,23.724 c-0.124,0.247-0.424,0.347-0.671,0.224c-4.873-2.437-9.369-3.134-9.414-3.14c-0.273-0.041-0.461-0.296-0.42-0.569 c0.041-0.273,0.296-0.461,0.569-0.42c0.189,0.029,4.698,0.729,9.711,3.235C19.783,23.176,19.883,23.477,19.76,23.724z"></path>
</symbol>
<symbol id="i-emoticon-bangs-suprised-02" viewBox="0 0 32 32">
    <path  d="M16,0C7.163,0,0,7.164,0,16c0,8.836,7.163,16,16,16s16-7.164,16-16C32,7.164,24.837,0,16,0z M16,31 C7.729,31,1,24.271,1,16C1,9.344,5.361,3.693,11.374,1.738c1.477,2.784,7.45,12.821,19.126,18.036C28.82,26.221,22.965,31,16,31z  M12,14c0,1.105-0.895,2-2,2s-2-0.895-2-2c0-1.105,0.895-2,2-2S12,12.895,12,14z M18,22c0,2.209-0.895,4-2,4s-2-1.791-2-4 c0-2.209,0.895-4,2-4S18,19.791,18,22z"></path>
</symbol>
<symbol id="i-emoticon-bangs-kiss-02" viewBox="0 0 32 32">
    <path  d="M16,0C7.163,0,0,7.164,0,16c0,8.836,7.163,16,16,16s16-7.164,16-16C32,7.164,24.837,0,16,0z M16,31 C7.729,31,1,24.271,1,16C1,9.344,5.361,3.693,11.374,1.738c1.477,2.784,7.45,12.821,19.126,18.036C28.82,26.221,22.965,31,16,31z  M19.404,24.983c-0.287,0.533-1.413,2.445-3.263,2.517c-1.85-0.071-2.976-1.983-3.263-2.517c-0.363-0.674-0.292-1.02,0.125-1.159 c0.265-0.088,0.893,0.172,1.549,0.485c0.578,0.276,1.104,0.398,1.589,0.403c0.485-0.005,1.011-0.127,1.589-0.403 c0.656-0.313,1.284-0.573,1.549-0.485C19.696,23.963,19.767,24.31,19.404,24.983z M19.435,22.932 c0.151,0.294,0.511,0.996-0.331,0.537c-0.945-0.645-1.659-0.55-2.06-0.463c-0.171,0.037-0.659,0.335-0.902,0.344 c-0.244-0.008-0.731-0.307-0.902-0.344c-0.401-0.087-1.115-0.182-2.06,0.463c-0.842,0.458-0.481-0.243-0.331-0.537 c0.15-0.294,0.829-1.612,1.547-2.113c1.177-0.82,1.745,0.198,1.746,0.199c0-0.001,0.568-1.019,1.746-0.199 C18.606,21.32,19.285,22.638,19.435,22.932z M6.106,15c-0.169,0-0.325-0.092-0.408-0.239c-0.083-0.148-0.079-0.328,0.009-0.473 C6.545,12.917,8.051,12,9.776,12c1.703,0,3.192,0.893,4.036,2.235c0.097,0.154,0.103,0.348,0.015,0.507 C13.74,14.901,13.572,15,13.391,15h-0.034c-0.161,0-0.311-0.083-0.397-0.22C12.293,13.716,11.122,13,9.776,13 c-1.346,0-2.517,0.716-3.184,1.78C6.507,14.917,6.357,15,6.196,15H6.106z"></path>
</symbol>
<symbol id="i-emoticon-bangs-sad-02" viewBox="0 0 32 32">
    <path  d="M16,0C7.163,0,0,7.164,0,16c0,8.836,7.163,16,16,16s16-7.164,16-16C32,7.164,24.837,0,16,0z M16,31 C7.729,31,1,24.271,1,16C1,9.344,5.361,3.693,11.374,1.738c1.477,2.784,7.45,12.821,19.126,18.036C28.82,26.221,22.965,31,16,31z  M10,16c-1.105,0-2-0.895-2-2c0-1.105,0.895-2,2-2s2,0.895,2,2C12,15.105,11.105,16,10,16z M22.391,24.2 c0.114,0.151,0.133,0.354,0.048,0.524C22.355,24.893,22.181,25,21.992,25c-0.158,0-0.306-0.074-0.4-0.2 C20.313,23.102,18.284,22,16,22s-4.313,1.102-5.591,2.8c-0.095,0.126-0.242,0.2-0.4,0.2c-0.189,0-0.362-0.107-0.447-0.277 c-0.085-0.169-0.066-0.372,0.048-0.524C11.067,22.258,13.385,21,16,21S20.933,22.258,22.391,24.2z"></path>
</symbol>
<symbol id="i-emoticon-bangs-confused-02" viewBox="0 0 32 32">
    <path  d="M8,14c0-1.105,0.895-2,2-2s2,0.895,2,2c0,1.105-0.895,2-2,2S8,15.105,8,14z M32,16c0,8.836-7.163,16-16,16 S0,24.836,0,16C0,7.164,7.163,0,16,0S32,7.164,32,16z M30.5,19.774C18.824,14.559,12.851,4.522,11.374,1.738 C5.361,3.693,1,9.344,1,16c0,8.271,6.729,15,15,15C22.965,31,28.82,26.221,30.5,19.774z M10,23.501C10,23.777,10.223,24,10.499,24 h11c0.276,0,0.499-0.223,0.499-0.499v-0.002c0-0.276-0.223-0.499-0.499-0.499h-11C10.223,23,10,23.223,10,23.499V23.501z"></path>
</symbol>
<symbol id="i-emoticon-bangs-unsure-02" viewBox="0 0 32 32">
    <path  d="M10,16c-1.105,0-2-0.895-2-2c0-1.105,0.895-2,2-2s2,0.895,2,2C12,15.105,11.105,16,10,16z M32,16 c0,8.836-7.163,16-16,16S0,24.836,0,16C0,7.164,7.163,0,16,0S32,7.164,32,16z M30.5,19.774C18.824,14.559,12.851,4.522,11.374,1.738 C5.361,3.693,1,9.344,1,16c0,8.271,6.729,15,15,15C22.965,31,28.82,26.221,30.5,19.774z M21.537,22.114 c0.256-0.102,0.38-0.393,0.278-0.648l-0.001-0.002c-0.049-0.123-0.145-0.221-0.267-0.273c-0.122-0.052-0.259-0.054-0.382-0.005 l-9.073,3.629c-0.256,0.102-0.38,0.393-0.278,0.648l0.001,0.002c0.049,0.123,0.145,0.221,0.267,0.273s0.259,0.054,0.382,0.005 L21.537,22.114z"></path>
</symbol>
<symbol id="i-emoticon-bangs-smile-02" viewBox="0 0 32 32">
    <path  d="M8,14c0-1.105,0.895-2,2-2s2,0.895,2,2c0,1.105-0.895,2-2,2S8,15.105,8,14z M32,16c0,8.836-7.163,16-16,16 S0,24.836,0,16C0,7.164,7.163,0,16,0S32,7.164,32,16z M30.5,19.774C18.824,14.559,12.851,4.522,11.374,1.738 C5.361,3.693,1,9.344,1,16c0,8.271,6.729,15,15,15C22.965,31,28.82,26.221,30.5,19.774z M7.95,20H6.838C8.381,23.531,11.9,26,16,26 s7.619-2.469,9.162-6H24.05c-1.476,2.958-4.525,5-8.05,5S9.426,22.958,7.95,20z"></path>
</symbol>
<symbol id="i-emoticon-bangs-relaxed" viewBox="0 0 32 32">
    <path  d="M16,0C7.163,0,0,7.164,0,16s7.163,16,16,16s16-7.164,16-16S24.837,0,16,0z M31,16c0,8.271-6.729,15-15,15 C7.729,31,1,24.271,1,16c0-1.387,0.204-2.724,0.558-4H14c1.105,0,2-0.895,2-2V6l5.415,5.414C21.79,11.789,22.298,12,22.829,12h7.613 C30.796,13.276,31,14.613,31,16z M3,15h26c0,0-1,6-6.988,6C18.833,21,16,18,16,16.2C16,18,13.167,21,9.988,21C4,21,3,15,3,15z  M12.043,24H20c-0.912,1.209-2.347,2-3.979,2S12.955,25.209,12.043,24z"></path>
</symbol>
<symbol id="i-emoticon-relaxed" viewBox="0 0 32 32">
    <path  d="M16,0C7.163,0,0,7.163,0,16s7.163,16,16,16s16-7.163,16-16S24.837,0,16,0z M16,31C7.729,31,1,24.271,1,16 C1,7.729,7.729,1,16,1c8.271,0,15,6.729,15,15C31,24.271,24.271,31,16,31z M3,11h26c0,0-1,6-6.988,6C18.833,17,16,14,16,12.2 C16,14,13.167,17,9.988,17C4,17,3,11,3,11z M12.043,24H20c-0.912,1.209-2.347,2-3.979,2S12.955,25.209,12.043,24z"></path>
</symbol>
<symbol id="i-emoticon-bangs-unsure" viewBox="0 0 32 32">
    <path  d="M12,16c0,1.105-0.895,2-2,2s-2-0.895-2-2c0-1.105,0.895-2,2-2S12,14.895,12,16z M32,16 c0,8.836-7.163,16-16,16S0,24.836,0,16S7.163,0,16,0S32,7.164,32,16z M30.442,12h-7.613c-0.53,0-1.039-0.211-1.414-0.586L16,6v4 c0,1.105-0.895,2-2,2H1.558C1.204,13.276,1,14.613,1,16c0,8.271,6.729,15,15,15c8.271,0,15-6.729,15-15 C31,14.613,30.796,13.276,30.442,12z M20,16c0,1.105,0.895,2,2,2s2-0.895,2-2c0-1.105-0.895-2-2-2S20,14.895,20,16z M21.814,21.464 c-0.049-0.123-0.145-0.221-0.267-0.273s-0.259-0.054-0.382-0.005l-9.073,3.629c-0.256,0.102-0.38,0.393-0.278,0.648l0.001,0.002 c0.049,0.123,0.145,0.221,0.267,0.273c0.122,0.052,0.259,0.054,0.382,0.005l9.073-3.629c0.256-0.102,0.38-0.393,0.278-0.648 L21.814,21.464z"></path>
</symbol>
<symbol id="i-emoticon-bangs-sad" viewBox="0 0 32 32">
    <path  d="M16,0C7.163,0,0,7.164,0,16s7.163,16,16,16s16-7.164,16-16S24.837,0,16,0z M31,16c0,8.271-6.729,15-15,15 C7.729,31,1,24.271,1,16c0-1.387,0.204-2.724,0.558-4H14c1.105,0,2-0.895,2-2V6l5.415,5.414C21.79,11.789,22.298,12,22.829,12h7.613 C30.796,13.276,31,14.613,31,16z M22,14c1.105,0,2,0.895,2,2c0,1.105-0.895,2-2,2s-2-0.895-2-2C20,14.895,20.895,14,22,14z M10,18 c-1.105,0-2-0.895-2-2c0-1.105,0.895-2,2-2s2,0.895,2,2C12,17.105,11.104,18,10,18z M22.391,24.2 c0.114,0.151,0.133,0.354,0.048,0.524C22.355,24.893,22.181,25,21.992,25c-0.158,0-0.306-0.074-0.4-0.2 C20.313,23.102,18.284,22,16,22s-4.313,1.102-5.591,2.8c-0.095,0.126-0.242,0.2-0.4,0.2c-0.189,0-0.362-0.107-0.447-0.277 c-0.085-0.169-0.066-0.372,0.048-0.524C11.067,22.258,13.385,21,16,21S20.933,22.258,22.391,24.2z"></path>
</symbol>
<symbol id="i-emoticon-bangs-one-side-smile" viewBox="0 0 32 32">
    <path  d="M21.204,20.054l1.843,0.778c-1.504,3.562-5.611,5.229-9.172,3.725c-0.313-0.133-0.607-0.292-0.89-0.462 C16.297,24.966,19.833,23.302,21.204,20.054z M32,16c0,8.836-7.164,16-16,16S0,24.836,0,16S7.164,0,16,0S32,7.164,32,16z M30.442,12 h-7.613c-0.53,0-1.039-0.211-1.414-0.586L16,6v4c0,1.104-0.896,2-2,2H1.558C1.204,13.276,1,14.613,1,16c0,8.271,6.729,15,15,15 s15-6.729,15-15C31,14.613,30.796,13.276,30.442,12z M10,14c-1.104,0-2,0.896-2,2s0.896,2,2,2s2-0.896,2-2S11.104,14,10,14z M20,16 c0,1.104,0.896,2,2,2s2-0.896,2-2s-0.896-2-2-2S20,14.896,20,16z"></path>
</symbol>
</svg>