<!-- Copyright © 2015 MODULUS Sp. z o. o. / FUTURAMO™ --><svg xmlns="http://www.w3.org/2000/svg" x="0px" y="0px" width="128px" height="128px" viewBox="0 0 64 64"><rect x="0" y="0" width="64" height="64" rx="16" ry="16" fill="#666666"></rect><rect x="4" y="4" width="56" height="56" rx="12" ry="12" fill="#ffffff"></rect><path transform="translate(16, 16)" fill="#666666" d="M27.383,12.219l2.974-3.353l-1-1.732l-4.399,0.9c-0.311-0.35-0.642-0.68-0.992-0.992l0.9-4.399l-1.732-1 l-3.353,2.974c-0.446-0.148-0.899-0.279-1.366-0.374L17,0h-2l-1.414,4.243c-0.467,0.095-0.921,0.226-1.366,0.374L8.866,1.644 l-1.732,1l0.9,4.399c-0.35,0.311-0.68,0.642-0.992,0.992l-4.399-0.9l-1,1.732l2.974,3.353c-0.148,0.446-0.279,0.899-0.374,1.366 L0,15v2l4.243,1.414c0.095,0.467,0.226,0.921,0.374,1.366l-2.974,3.353l1,1.732l4.399-0.9c0.311,0.35,0.642,0.68,0.992,0.992 l-0.9,4.399l1.732,1l3.353-2.974c0.446,0.148,0.899,0.279,1.366,0.374L15,32h2l1.414-4.243c0.467-0.095,0.921-0.226,1.366-0.374 l3.353,2.974l1.732-1l-0.9-4.399c0.35-0.311,0.68-0.642,0.992-0.992l4.399,0.9l1-1.732l-2.974-3.353 c0.148-0.446,0.279-0.899,0.374-1.366L32,17v-2l-4.243-1.414C27.661,13.119,27.531,12.665,27.383,12.219z M24,16 c0,4.411-3.589,8-8,8s-8-3.589-8-8c0-4.411,3.589-8,8-8S24,11.589,24,16z M16,12c2.209,0,4,1.791,4,4c0,2.209-1.791,4-4,4 s-4-1.791-4-4C12,13.791,13.791,12,16,12z"></path></svg>