<!-- Copyright © 2015 MODULUS Sp. z o. o. / FUTURAMO™ -->
<svg xmlns="http://www.w3.org/2000/svg" x="0px" y="0px" width="64px" height="64px" viewBox="0 0 64 64">
	<rect x="0" y="0" width="64" height="64" rx="16" ry="16" fill="#ff7777"></rect>
	<rect x="6" y="6" width="52" height="52" rx="10" ry="10" fill="#bcf7ff"></rect>
	<path transform="translate(16, 16)" fill="#e4922c" d="M0,24h14v-4H4v-8h24v2h4V0H0V24z M4,4h24v2H4V4z M24,16c-4.418,0-8,3.582-8,8s3.582,8,8,8s8-3.582,8-8 S28.418,16,24,16 M27,23v2h-4.614c0.066,0.357,0.145,0.585,0.145,0.585c0.464,1.295,1.275,1.866,2.563,1.866 c0.708,0,1.246-0.148,1.651-0.313l0.387,1.497C26.834,28.786,26.113,29,25,29c-2.264,0-4.096-1.082-4.716-3.378 c0,0-0.071-0.256-0.136-0.622H19v-2h1.136c0.067-0.404,0.148-0.694,0.148-0.694C20.904,20.009,22.736,19,25,19 c1.113,0,1.834,0.212,2.132,0.36l-0.387,1.498c-0.405-0.162-0.943-0.313-1.651-0.313c-1.287,0-2.099,0.664-2.563,1.962 c0,0-0.062,0.192-0.122,0.493H27z">
	</path>
</svg>